<svg width="13" height="12" viewBox="0 0 13 12" fill="none" xmlns="http://www.w3.org/2000/svg">
<path d="M10.5 3.5H2.5C1.94772 3.5 1.5 3.94772 1.5 4.5V9.5C1.5 10.0523 1.94772 10.5 2.5 10.5H10.5C11.0523 10.5 11.5 10.0523 11.5 9.5V4.5C11.5 3.94772 11.0523 3.5 10.5 3.5Z" stroke="#2D3E5B" stroke-linecap="round" stroke-linejoin="round"/>
<path d="M8.5 10.5V2.5C8.5 2.23478 8.39464 1.98043 8.20711 1.79289C8.01957 1.60536 7.76522 1.5 7.5 1.5H5.5C5.23478 1.5 4.98043 1.60536 4.79289 1.79289C4.60536 1.98043 4.5 2.23478 4.5 2.5V10.5" stroke="#2D3E5B" stroke-linecap="round" stroke-linejoin="round"/>
</svg>
