<svg width="12" height="12" viewBox="0 0 12 12" fill="none" xmlns="http://www.w3.org/2000/svg">
<g clip-path="url(#clip0_18_16)">
<path d="M5 6.49998C5.21473 6.78705 5.48868 7.02457 5.80328 7.19645C6.11787 7.36833 6.46575 7.47054 6.82333 7.49615C7.1809 7.52176 7.53979 7.47017 7.87567 7.34487C8.21155 7.21958 8.51656 7.02352 8.77 6.76998L10.27 5.26998C10.7254 4.79848 10.9774 4.16697 10.9717 3.51148C10.966 2.85599 10.7031 2.22896 10.2395 1.76544C9.77603 1.30192 9.14899 1.03899 8.4935 1.0333C7.83801 1.0276 7.20651 1.27959 6.735 1.73498L5.875 2.58998" stroke="#2D3E5B" stroke-linecap="round" stroke-linejoin="round"/>
<path d="M7.00001 5.49999C6.78528 5.21293 6.51133 4.9754 6.19673 4.80352C5.88214 4.63164 5.53425 4.52943 5.17668 4.50382C4.81911 4.47822 4.46022 4.52981 4.12434 4.6551C3.78846 4.78039 3.48345 4.97646 3.23001 5.22999L1.73001 6.72999C1.27461 7.2015 1.02263 7.833 1.02832 8.48849C1.03402 9.14399 1.29694 9.77102 1.76046 10.2345C2.22398 10.6981 2.85101 10.961 3.50651 10.9667C4.162 10.9724 4.7935 10.7204 5.26501 10.265L6.12001 9.40999" stroke="#2D3E5B" stroke-linecap="round" stroke-linejoin="round"/>
</g>
<defs>
<clipPath id="clip0_18_16">
<rect width="12" height="12" fill="white"/>
</clipPath>
</defs>
</svg>
